<svg width="407" height="132" viewBox="0 0 407 132" fill="none" xmlns="http://www.w3.org/2000/svg">
<path d="M20.9361 109V30.3567H34.2845V64.4515H73.2041V30.3567H86.5526V109H73.2041V76.835H34.2845V109H20.9361ZM145.661 109H134.242V100.959C129.203 106.963 122.555 109.965 114.3 109.965C107.974 109.965 102.774 108.196 98.6997 104.658C94.7327 101.012 92.7492 96.2948 92.7492 90.5052C92.7492 84.7155 94.8936 80.3196 99.1822 77.3175C103.471 74.3155 109.368 72.8144 116.873 72.8144H133.277V70.5629C133.277 62.6289 128.828 58.6619 119.929 58.6619C114.353 58.6619 108.564 60.699 102.56 64.7732L96.9307 56.8928C104.329 51.1031 112.584 48.2082 121.698 48.2082C129.096 48.2082 134.939 50.0845 139.228 53.8371C143.516 57.4825 145.661 63.0041 145.661 70.4021V109ZM133.116 81.6598H118.964C109.85 81.6598 105.294 84.501 105.294 90.1835C105.294 93.0783 106.419 95.3299 108.671 96.9381C110.922 98.4392 114.085 99.1897 118.16 99.1897C122.341 99.1897 125.879 98.0639 128.774 95.8124C131.669 93.4536 133.116 90.3979 133.116 86.6454V81.6598ZM215.284 78.7649C215.284 87.7711 212.496 95.2227 206.921 101.12C201.346 107.016 194.698 109.965 186.979 109.965C179.366 109.965 172.558 106.641 166.554 99.9938V130.872H154.01V49.1732H166.554V59.6268C171.593 52.0144 178.08 48.2082 186.014 48.2082C194.269 48.2082 201.185 51.0495 206.76 56.732C212.443 62.4144 215.284 69.7588 215.284 78.7649ZM184.084 98.7072C189.23 98.7072 193.572 96.8845 197.111 93.2392C200.756 89.4866 202.579 84.7691 202.579 79.0866C202.579 73.4041 200.756 68.6866 197.111 64.934C193.572 61.1814 189.284 59.3052 184.245 59.3052C179.205 59.3052 174.97 61.235 171.539 65.0948C168.108 68.8474 166.393 73.5113 166.393 79.0866C166.393 84.7691 168.108 89.4866 171.539 93.2392C174.97 96.8845 179.152 98.7072 184.084 98.7072ZM281.486 78.7649C281.486 87.7711 278.699 95.2227 273.123 101.12C267.548 107.016 260.901 109.965 253.181 109.965C245.569 109.965 238.76 106.641 232.756 99.9938V130.872H220.212V49.1732H232.756V59.6268C237.796 52.0144 244.282 48.2082 252.216 48.2082C260.472 48.2082 267.387 51.0495 272.963 56.732C278.645 62.4144 281.486 69.7588 281.486 78.7649ZM250.286 98.7072C255.433 98.7072 259.775 96.8845 263.313 93.2392C266.958 89.4866 268.781 84.7691 268.781 79.0866C268.781 73.4041 266.958 68.6866 263.313 64.934C259.775 61.1814 255.486 59.3052 250.447 59.3052C245.408 59.3052 241.173 61.235 237.742 65.0948C234.311 68.8474 232.596 73.5113 232.596 79.0866C232.596 84.7691 234.311 89.4866 237.742 93.2392C241.173 96.8845 245.354 98.7072 250.286 98.7072ZM298.959 109H286.415V49.1732H298.959V109ZM284.806 31.4825C284.806 29.3381 285.557 27.5155 287.058 26.0144C288.666 24.4062 290.596 23.6021 292.847 23.6021C294.992 23.6021 296.815 24.4062 298.316 26.0144C299.924 27.5155 300.728 29.3381 300.728 31.4825C300.728 33.734 299.924 35.6639 298.316 37.2722C296.815 38.7732 294.992 39.5237 292.847 39.5237C290.596 39.5237 288.72 38.7196 287.219 37.1113C285.61 35.6103 284.806 33.734 284.806 31.4825ZM363.626 84.5546H316.665C316.986 88.8433 318.97 92.3278 322.615 95.0082C326.261 97.6887 330.496 99.0289 335.321 99.0289C342.933 99.0289 348.615 96.6701 352.368 91.9526L359.605 99.833C353.172 106.588 344.756 109.965 334.356 109.965C325.778 109.965 318.595 107.124 312.805 101.441C307.015 95.7588 304.121 88.2536 304.121 78.9258C304.121 69.8124 307.069 62.4144 312.966 56.732C318.863 51.0495 325.993 48.2082 334.356 48.2082C342.718 48.2082 349.688 50.7278 355.263 55.767C360.838 60.8062 363.626 67.5072 363.626 75.8701V84.5546ZM351.081 74.5835C351.081 69.7588 349.527 65.9526 346.417 63.1649C343.415 60.3773 339.502 58.9835 334.677 58.9835C329.852 58.9835 325.617 60.4309 321.972 63.3258C318.434 66.2206 316.665 69.9732 316.665 74.5835H351.081ZM363.286 105.568C365.054 102.552 367.186 99.588 369.682 96.676C372.282 93.66 375.142 91.32 378.262 89.656C378.886 90.488 379.822 91.476 381.07 92.62C382.422 93.764 383.826 94.908 385.282 96.052C386.842 97.196 388.298 98.288 389.65 99.328C391.106 100.264 392.198 100.94 392.926 101.356C389.39 103.852 386.374 106.296 383.878 108.688C381.486 110.976 379.406 113.888 377.638 117.424C377.014 116.696 376.026 115.76 374.674 114.616C373.426 113.576 372.074 112.484 370.618 111.34C369.162 110.196 367.758 109.104 366.406 108.064C365.054 107.024 364.014 106.192 363.286 105.568Z" fill="white"/>
</svg>
