<svg width="48" height="48" viewBox="0 0 48 48" fill="none" xmlns="http://www.w3.org/2000/svg">
<path d="M45 24C45 12.402 35.598 3 24 3C12.402 3 3 12.402 3 24C3 35.598 12.402 45 24 45C35.598 45 45 35.598 45 24Z" fill="#1275B1"/>
<path d="M18.9279 14.5382C18.9279 15.9401 17.7128 17.0765 16.214 17.0765C14.7151 17.0765 13.5 15.9401 13.5 14.5382C13.5 13.1364 14.7151 12 16.214 12C17.7128 12 18.9279 13.1364 18.9279 14.5382Z" fill="white"/>
<path d="M13.8711 18.9424H18.5103V33.0002H13.8711V18.9424Z" fill="white"/>
<path d="M25.9794 18.9422H21.3402V33H25.9794C25.9794 33 25.9794 28.5744 25.9794 25.8074C25.9794 24.1464 26.5466 22.4783 28.8093 22.4783C31.3665 22.4783 31.3512 24.6518 31.3392 26.3357C31.3236 28.5366 31.3608 30.7829 31.3608 33H36V25.5806C35.9607 20.8431 34.7262 18.6602 30.665 18.6602C28.2531 18.6602 26.7581 19.7552 25.9794 20.7458V18.9422Z" fill="white"/>
</svg>
