<svg width="120" height="54" viewBox="0 0 120 54" fill="none" xmlns="http://www.w3.org/2000/svg">
<rect width="120" height="54" fill="white"/>
<path d="M12.8041 38V17.8351H16.2268V26.5773H26.2062V17.8351H29.6289V38H26.2062V29.7526H16.2268V38H12.8041ZM44.7848 38H41.8569V35.9381C40.5648 37.4777 38.8604 38.2474 36.7435 38.2474C35.1215 38.2474 33.7882 37.7938 32.7435 36.8866C31.7263 35.9519 31.2178 34.7423 31.2178 33.2577C31.2178 31.7732 31.7676 30.646 32.8672 29.8763C33.9669 29.1065 35.4789 28.7216 37.4033 28.7216H41.6095V28.1443C41.6095 26.11 40.4686 25.0928 38.1868 25.0928C36.7573 25.0928 35.2727 25.6151 33.7332 26.6598L32.2899 24.6392C34.1868 23.1546 36.3037 22.4124 38.6404 22.4124C40.5373 22.4124 42.0356 22.8935 43.1353 23.8557C44.2349 24.7904 44.7848 26.2062 44.7848 28.1031V38ZM41.5683 30.9897H37.9394C35.6026 30.9897 34.4342 31.7182 34.4342 33.1753C34.4342 33.9175 34.7229 34.4948 35.3002 34.9072C35.8775 35.2921 36.6885 35.4845 37.7332 35.4845C38.8054 35.4845 39.7126 35.1959 40.4549 34.6186C41.1971 34.0137 41.5683 33.2302 41.5683 32.268V30.9897ZM62.6369 30.2474C62.6369 32.5567 61.9221 34.4674 60.4925 35.9794C59.063 37.4914 57.3585 38.2474 55.3791 38.2474C53.4272 38.2474 51.6815 37.3952 50.142 35.6907V43.6082H46.9255V22.6598H50.142V25.3402C51.4341 23.3883 53.0973 22.4124 55.1317 22.4124C57.2485 22.4124 59.0217 23.1409 60.4513 24.5979C61.9083 26.055 62.6369 27.9381 62.6369 30.2474ZM54.6369 35.3608C55.9564 35.3608 57.0698 34.8935 57.9771 33.9588C58.9118 32.9966 59.3791 31.7869 59.3791 30.3299C59.3791 28.8729 58.9118 27.6632 57.9771 26.701C57.0698 25.7388 55.9702 25.2577 54.6781 25.2577C53.386 25.2577 52.3001 25.7526 51.4204 26.7423C50.5406 27.7045 50.1008 28.9003 50.1008 30.3299C50.1008 31.7869 50.5406 32.9966 51.4204 33.9588C52.3001 34.8935 53.3723 35.3608 54.6369 35.3608ZM79.6119 30.2474C79.6119 32.5567 78.8971 34.4674 77.4675 35.9794C76.038 37.4914 74.3335 38.2474 72.3541 38.2474C70.4022 38.2474 68.6565 37.3952 67.117 35.6907V43.6082H63.9005V22.6598H67.117V25.3402C68.4091 23.3883 70.0723 22.4124 72.1067 22.4124C74.2235 22.4124 75.9967 23.1409 77.4263 24.5979C78.8833 26.055 79.6119 27.9381 79.6119 30.2474ZM71.6119 35.3608C72.9314 35.3608 74.0448 34.8935 74.9521 33.9588C75.8868 32.9966 76.3541 31.7869 76.3541 30.3299C76.3541 28.8729 75.8868 27.6632 74.9521 26.701C74.0448 25.7388 72.9452 25.2577 71.6531 25.2577C70.361 25.2577 69.2751 25.7526 68.3954 26.7423C67.5156 27.7045 67.0758 28.9003 67.0758 30.3299C67.0758 31.7869 67.5156 32.9966 68.3954 33.9588C69.2751 34.8935 70.3473 35.3608 71.6119 35.3608ZM84.092 38H80.8755V22.6598H84.092V38ZM80.4631 18.1237C80.4631 17.5739 80.6556 17.1065 81.0405 16.7216C81.4528 16.3093 81.9477 16.1031 82.525 16.1031C83.0748 16.1031 83.5422 16.3093 83.9271 16.7216C84.3394 17.1065 84.5456 17.5739 84.5456 18.1237C84.5456 18.701 84.3394 19.1959 83.9271 19.6082C83.5422 19.9931 83.0748 20.1856 82.525 20.1856C81.9477 20.1856 81.4666 19.9794 81.0817 19.567C80.6693 19.1821 80.4631 18.701 80.4631 18.1237ZM100.673 31.732H88.632C88.7145 32.8316 89.2231 33.7251 90.1578 34.4124C91.0925 35.0997 92.1784 35.4433 93.4155 35.4433C95.3674 35.4433 96.8244 34.8385 97.7866 33.6289L99.6423 35.6495C97.9928 37.3814 95.8348 38.2474 93.1681 38.2474C90.9688 38.2474 89.1269 37.5189 87.6423 36.0619C86.1578 34.6048 85.4155 32.6804 85.4155 30.2887C85.4155 27.9519 86.1715 26.055 87.6836 24.5979C89.1956 23.1409 91.0238 22.4124 93.1681 22.4124C95.3124 22.4124 97.0994 23.0584 98.5289 24.3505C99.9585 25.6426 100.673 27.3608 100.673 29.5052V31.732ZM97.4568 29.1753C97.4568 27.9381 97.0581 26.9622 96.2609 26.2474C95.4911 25.5326 94.4877 25.1753 93.2506 25.1753C92.0135 25.1753 90.9275 25.5464 89.9928 26.2887C89.0856 27.0309 88.632 27.9931 88.632 29.1753H97.4568ZM100.586 37.12C101.04 36.3467 101.586 35.5867 102.226 34.84C102.893 34.0667 103.626 33.4667 104.426 33.04C104.586 33.2533 104.826 33.5067 105.146 33.8C105.493 34.0933 105.853 34.3867 106.226 34.68C106.626 34.9733 107 35.2533 107.346 35.52C107.72 35.76 108 35.9333 108.186 36.04C107.28 36.68 106.506 37.3067 105.866 37.92C105.253 38.5067 104.72 39.2533 104.266 40.16C104.106 39.9733 103.853 39.7333 103.506 39.44C103.186 39.1733 102.84 38.8933 102.466 38.6C102.093 38.3067 101.733 38.0267 101.386 37.76C101.04 37.4933 100.773 37.28 100.586 37.12Z" fill="black"/>
</svg>
