<svg width="91" height="90" viewBox="0 0 91 90" fill="none" xmlns="http://www.w3.org/2000/svg">
<rect x="0.5" width="90" height="90" rx="45" fill="#FFF3E2"/>
<path d="M62.0403 65H63.2658C66.1403 65 68.4267 63.6903 70.4797 61.859C75.695 57.2065 63.4353 52.5 59.25 52.5M54.25 27.6719C54.8177 27.5593 55.4072 27.5 56.012 27.5C60.5617 27.5 64.25 30.8579 64.25 35C64.25 39.1421 60.5617 42.5 56.012 42.5C55.4072 42.5 54.8177 42.4408 54.25 42.328" stroke="#FF9500" stroke-width="3.75" stroke-linecap="round"/>
<path d="M26.7033 55.278C23.7559 56.8575 16.0278 60.0827 20.7347 64.1185C23.034 66.09 25.5948 67.5 28.8143 67.5H47.1858C50.4053 67.5 52.966 66.09 55.2653 64.1185C59.9723 60.0827 52.2443 56.8575 49.2968 55.278C42.385 51.574 33.615 51.574 26.7033 55.278Z" stroke="#FF9500" stroke-width="3.75"/>
<path d="M48 33.75C48 39.2729 43.5228 43.75 38 43.75C32.4771 43.75 28 39.2729 28 33.75C28 28.2271 32.4771 23.75 38 23.75C43.5228 23.75 48 28.2271 48 33.75Z" stroke="#FF9500" stroke-width="3.75"/>
</svg>
