<svg width="91" height="90" viewBox="0 0 91 90" fill="none" xmlns="http://www.w3.org/2000/svg">
<rect x="0.5" width="90" height="90" rx="45" fill="#F6E4FF"/>
<path d="M20.5 32.5C20.5 28.9997 20.5 27.2495 21.1812 25.9125C21.7804 24.7365 22.7366 23.7804 23.9126 23.1812C25.2495 22.5 26.9997 22.5 30.5 22.5C34.0003 22.5 35.7505 22.5 37.0875 23.1812C38.2635 23.7804 39.2196 24.7365 39.8188 25.9125C40.5 27.2495 40.5 28.9997 40.5 32.5V57.5C40.5 61.0002 40.5 62.7505 39.8188 64.0875C39.2196 65.2635 38.2635 66.2195 37.0875 66.8188C35.7505 67.5 34.0003 67.5 30.5 67.5C26.9997 67.5 25.2495 67.5 23.9126 66.8188C22.7366 66.2195 21.7804 65.2635 21.1812 64.0875C20.5 62.7505 20.5 61.0002 20.5 57.5V32.5Z" stroke="#AF52DE" stroke-width="3.75" stroke-linecap="round" stroke-linejoin="round"/>
<path d="M30.5 57.5H30.5224" stroke="#AF52DE" stroke-width="5" stroke-linecap="round" stroke-linejoin="round"/>
<path d="M20.5 32.5H40.5" stroke="#AF52DE" stroke-width="3.75" stroke-linecap="round" stroke-linejoin="round"/>
<path d="M44.1215 35.6711C43.2343 32.3459 42.7908 30.6834 43.0963 29.24C43.365 27.9703 44.027 26.8187 44.9878 25.9501C46.0798 24.9627 47.7355 24.5172 51.0468 23.6262C54.358 22.7353 56.0137 22.2898 57.451 22.5966C58.7155 22.8665 59.8623 23.5314 60.7273 24.496C61.7105 25.5926 62.1543 27.2552 63.0415 30.5803L69.3785 54.329C70.2657 57.654 70.7093 59.3165 70.4038 60.76C70.135 62.0297 69.473 63.1812 68.5123 64.05C67.4203 65.0372 65.7645 65.4827 62.4532 66.3737C59.142 67.2647 57.4863 67.7102 56.049 67.4035C54.7845 67.1335 53.6378 66.4685 52.7728 65.504C51.7895 64.4072 51.3458 62.7447 50.4585 59.4197L44.1215 35.6711Z" stroke="#AF52DE" stroke-width="3.75" stroke-linecap="round" stroke-linejoin="round"/>
<path d="M59.953 56.7382L59.9748 56.7324" stroke="#AF52DE" stroke-width="5" stroke-linecap="round" stroke-linejoin="round"/>
<path d="M45.5 35.0005L61.7502 30" stroke="#AF52DE" stroke-width="3.75" stroke-linecap="round" stroke-linejoin="round"/>
</svg>
