<svg width="141" height="370" viewBox="0 0 141 370" fill="none" xmlns="http://www.w3.org/2000/svg">
<path d="M100.951 206.896L101.508 206.065L100.951 206.896ZM21.3215 140.178L20.5605 139.529L21.3215 140.178ZM117.712 369.402C118.256 369.495 118.773 369.129 118.865 368.584L120.377 359.712C120.469 359.168 120.103 358.651 119.559 358.559C119.014 358.466 118.498 358.832 118.405 359.376L117.062 367.263L109.175 365.919C108.631 365.827 108.114 366.193 108.021 366.737C107.929 367.282 108.295 367.798 108.839 367.891L117.712 369.402ZM139.41 0.192438C94.0122 33.3476 64.2025 71.7143 55.7716 108.602C51.5519 127.064 52.6901 145.155 59.9192 161.996C67.1462 178.832 80.4309 194.351 100.395 207.727L101.508 206.065C81.7987 192.86 68.8031 177.622 61.757 161.207C54.7129 144.797 53.5854 127.143 57.7213 109.047C66.0018 72.8184 95.3896 34.8182 140.59 1.80755L139.41 0.192438ZM100.395 207.727C107.24 212.313 112.959 213.088 117.371 210.579C121.693 208.121 124.355 202.715 125.658 195.927C128.277 182.289 125.626 162.032 118.287 144.255C110.96 126.505 98.809 110.887 82.1635 107.011C65.4425 103.117 44.7241 111.18 20.5605 139.529L22.0826 140.826C46.0755 112.677 66.0921 105.322 81.7099 108.959C97.4031 112.613 109.195 127.472 116.439 145.018C123.671 162.537 126.221 182.391 123.694 195.55C122.425 202.16 119.927 206.825 116.382 208.841C112.926 210.806 108.069 210.461 101.508 206.065L100.395 207.727ZM20.5605 139.529C4.28922 158.619 -1.33646 177.66 0.346044 196.725C2.0242 215.739 10.9634 234.668 23.6013 253.593C36.2418 272.522 52.6479 291.542 69.3534 310.725C86.0761 329.929 103.101 349.299 117.064 368.995L118.695 367.838C104.663 348.044 87.564 328.592 70.8617 309.412C54.142 290.212 37.8222 271.288 25.2646 252.482C12.7045 233.674 3.97356 215.077 2.33831 196.549C0.707392 178.069 6.12502 159.548 22.0826 140.826L20.5605 139.529Z" fill="black"/>
</svg>
